<svg xmlns="http://www.w3.org/2000/svg" xmlns:xlink="http://www.w3.org/1999/xlink" version="1.1" x="0px" y="0px" viewBox="0 0 100 125" style="enable-background:new 0 0 100 100;" xml:space="preserve"><path d="M71.0012817,24.7542114c-1.0853958,0-1.9636841,0.8792477-1.9636841,1.963686v2.1497002h-4.0903778  c-5.2119675,0-9.8781166,2.3733463-12.9825745,6.0931339v-6.6194134c3.6414032-3.4646168,5.4328575-7.175293,5.2774086-11.0477734  c-0.2588844-6.4308815-5.8220253-10.6938457-6.0598145-10.8721886c-0.6980286-0.5273571-1.6645317-0.5273571-2.3625603,0  c-0.2358742,0.1783423-5.8028488,4.4413071-6.0617332,10.873148c-0.1536522,3.8716393,1.6364861,7.5824375,5.2793274,11.0470543  v6.6194134c-3.1045761-3.7199078-7.771328-6.0933743-12.9844933-6.0933743h-4.0903759v-2.1497002  c0-1.0844383-0.8782902-1.963686-1.963686-1.963686c-1.0853977,0-1.9636879,0.8792477-1.9636879,1.963686v4.1133862  c0,9.3246346,7.5862732,16.9109077,16.9099503,16.9109077h4.0922928v7.4997406  c-3.1045761-3.7197876-7.771328-6.0931358-12.9844933-6.0931358h-4.0903759V46.354763  c0-1.0844383-0.8782902-1.9636879-1.963686-1.9636879c-1.0853977,0-1.9636879,0.8792496-1.9636879,1.9636879v4.1133881  c0,0.1143379,0.0462646,0.2132187,0.0649624,0.3221664c-0.0186977,0.1089478-0.0649624,0.2078247-0.0649624,0.3221664  c0,9.3236771,7.5862732,16.9099464,16.9099503,16.9099464h4.0922928v7.4987793  c-3.1045761-3.71978-7.771328-6.093132-12.9844933-6.093132h-4.0903759v-1.4727631  c0-1.0853958-0.8782902-1.9636841-1.963686-1.9636841c-1.0853977,0-1.9636879,0.8782883-1.9636879,1.9636841v4.1133881  c0,0.0805435,0.0363159,0.1490936,0.045784,0.2271194c0.4742622,8.9025116,7.8456383,16.0058899,16.8641663,16.0058899h4.0922928  v3.7087631c0,1.0853958,0.8782883,1.9636841,1.9636841,1.9636841c1.0853996,0,1.9636879-0.8782883,1.9636879-1.9636841V88.301712  h4.090374c9.0184059,0,16.389782-7.1033783,16.8641624-16.0056458c0.0094681-0.0781479,0.045784-0.1467056,0.045784-0.2273636  v-4.1133881c0-1.0853958-0.8782883-1.9636841-1.9636841-1.9636841s-1.9636841,0.8782883-1.9636841,1.9636841v1.4727631h-4.0903778  c-5.2119675,0-9.8781166,2.37323-12.9825745,6.0928955v-7.4985428h4.090374c9.3236732,0,16.9099464-7.5862694,16.9099464-16.9099464  c0-0.1143417-0.046257-0.2132187-0.0649567-0.3221664c0.0186996-0.1089478,0.0649567-0.2078285,0.0649567-0.3221664V46.354763  c0-1.0844383-0.8782883-1.9636879-1.9636841-1.9636879s-1.9636841,0.8792496-1.9636841,1.9636879v2.7940331h-4.0903778  c-5.2119675,0-9.8781166,2.37323-12.9825745,6.0928955v-7.4995003h4.090374c9.3236732,0,16.9099464-7.5862732,16.9099464-16.9109077  v-4.1133862C72.9649658,25.6334591,72.0866776,24.7542114,71.0012817,24.7542114z M46.6814842,17.4757233  c0.1112251-3.0097723,2.0192986-5.4825983,3.3175583-6.8259211c1.2925034,1.3433228,3.1986618,3.8151903,3.3194733,6.8019495  c0.0975609,2.4414234-1.0109673,4.8933964-3.2980194,7.3064137c-0.0069542-0.0001183-0.0125847-0.0039539-0.0195389-0.0039539  c-0.0069504,0-0.0125847,0.0038357-0.0195351,0.0039539C47.7020416,22.3528175,46.5915947,19.9085178,46.6814842,17.4757233z   M43.9449806,43.8148193c-6.4912872,0-11.8856735-4.7893639-12.8349171-11.0198479h3.9427166  c6.4932022,0,11.8875885,4.78936,12.836834,11.0198479H43.9449806z M43.9449806,64.0950623  c-6.4912872,0-11.8856735-4.7884064-12.8349171-11.0188904h3.9427166c6.4932022,0,11.8875885,4.7884026,12.836834,11.0188904  H43.9449806z M43.9449806,84.3743439c-6.4912872,0-11.8856735-4.7884064-12.8349171-11.0188904h3.9427166  c6.4932022,0,11.8875885,4.7884064,12.836834,11.0188904H43.9449806z M64.9472198,73.3554535h3.9427185  c-0.9492493,6.230484-6.3436317,11.0188904-12.834919,11.0188904h-3.9427147  C53.0615501,78.1438599,58.4559326,73.3554535,64.9472198,73.3554535z M64.9472198,53.0761719h3.9427185  c-0.9492493,6.230484-6.3436317,11.0188904-12.834919,11.0188904h-3.9427147  C53.0615501,57.8645744,58.4559326,53.0761719,64.9472198,53.0761719z M56.0550194,43.8148193h-3.9427147  c0.9492455-6.2304878,6.3436279-11.0198479,12.8349152-11.0198479h3.9427185  C67.9406891,39.0254555,62.5463066,43.8148193,56.0550194,43.8148193z"/><text x="0" y="115" fill="#000000" font-size="5px" font-weight="bold" font-family="'Helvetica Neue', Helvetica, Arial-Unicode, Arial, Sans-serif">Created by Artem  Kovyazin</text><text x="0" y="120" fill="#000000" font-size="5px" font-weight="bold" font-family="'Helvetica Neue', Helvetica, Arial-Unicode, Arial, Sans-serif">from the Noun Project</text></svg>