<svg xmlns="http://www.w3.org/2000/svg" xmlns:xlink="http://www.w3.org/1999/xlink" version="1.1" x="0px" y="0px" viewBox="0 0 100 125" enable-background="new 0 0 100 100" xml:space="preserve"><path fill="none" stroke="#000000" stroke-width="4" stroke-linecap="round" stroke-linejoin="round" stroke-miterlimit="10" d="  M80.44,52.625c0,17.213-12.471,31.167-27.854,31.167S24.732,69.838,24.732,52.625c0-2.338,0.23-4.617,0.666-6.808  c2.776-13.939,14.769-15.651,28.063-15.651c9.574,0,17.145-3.303,22.159,4.928C78.662,40.09,80.44,46.125,80.44,52.625z"/><line fill="none" stroke="#000000" stroke-width="4" stroke-linecap="round" stroke-linejoin="round" stroke-miterlimit="10" x1="37.22" y1="65.579" x2="37.579" y2="68.204"/><line fill="none" stroke="#000000" stroke-width="4" stroke-linecap="round" stroke-linejoin="round" stroke-miterlimit="10" x1="44.366" y1="70.073" x2="44.574" y2="72.282"/><line fill="none" stroke="#000000" stroke-width="4" stroke-linecap="round" stroke-linejoin="round" stroke-miterlimit="10" x1="68.258" y1="63.901" x2="68.467" y2="66.109"/><line fill="none" stroke="#000000" stroke-width="4" stroke-linecap="round" stroke-linejoin="round" stroke-miterlimit="10" x1="64.425" y1="68.204" x2="64.633" y2="70.413"/><line fill="none" stroke="#000000" stroke-width="4" stroke-linecap="round" stroke-linejoin="round" stroke-miterlimit="10" x1="44.168" y1="62.74" x2="44.47" y2="63.532"/><path fill="none" stroke="#000000" stroke-width="4" stroke-linecap="round" stroke-linejoin="round" stroke-miterlimit="10" d="  M25.398,45.817c5.102,4.849,17.75,7.516,30.426,5.516s24.749-8.976,19.796-16.238"/><path fill="none" stroke="#000000" stroke-width="4" stroke-linecap="round" stroke-linejoin="round" stroke-miterlimit="10" d="  M33.833,43.644c-3.24-2.749,2.453-8.287,16.56-8.549s21.669,0.252,18.073,4.405C64.695,43.856,40.145,49,33.833,43.644z"/><polyline fill="none" stroke="#000000" stroke-width="4" stroke-linecap="round" stroke-linejoin="round" stroke-miterlimit="10" points="  21.833,25.742 38.708,18 49.735,45.165 "/><text x="0" y="115" fill="#000000" font-size="5px" font-weight="bold" font-family="'Helvetica Neue', Helvetica, Arial-Unicode, Arial, Sans-serif">Created by Jetro Cabau Quirós</text><text x="0" y="120" fill="#000000" font-size="5px" font-weight="bold" font-family="'Helvetica Neue', Helvetica, Arial-Unicode, Arial, Sans-serif">from the Noun Project</text></svg>