<svg xmlns="http://www.w3.org/2000/svg" xmlns:xlink="http://www.w3.org/1999/xlink" version="1.1" x="0px" y="0px" viewBox="0 0 48 60" enable-background="new 0 0 48 48" xml:space="preserve"><g><path d="M31.616,22.786c-0.051,0-0.103-0.004-0.155-0.012c-0.546-0.085-0.919-0.597-0.834-1.143c0.219-1.403,0.33-2.863,0.33-4.339   c0-8.29-3.6-15.293-7.861-15.293c-4.262,0-7.862,7.003-7.862,15.293c0,0.552-0.448,1-1,1s-1-0.448-1-1   C13.234,7.596,17.566,0,23.096,0c5.53,0,9.861,7.596,9.861,17.293c0,1.579-0.119,3.143-0.354,4.647   C32.526,22.434,32.101,22.786,31.616,22.786z"/><path d="M24.907,48.001c-0.4,0-0.793-0.009-1.167-0.027c-0.14-0.008-0.311-0.006-0.489-0.006c-0.63,0-1.34,0.003-1.864-0.222   c-0.05-0.021-0.098-0.047-0.143-0.075c-0.048-0.021-0.095-0.045-0.14-0.074c-0.468-0.293-0.609-0.91-0.316-1.378   c0.106-0.169,0.225-0.461,0.314-0.742c-1.965-0.344-3.852-1.29-5.099-2.592c-1.867-1.945-2.456-4.419-2.861-6.585   c-0.47-2.51-0.819-5.095-1.157-7.594c-0.153-1.137-0.306-2.268-0.469-3.385c0-0.006-0.001-0.011-0.002-0.017   c-0.207,0.212-0.45,0.509-0.71,0.911c-0.145,0.224-0.272,0.502-0.407,0.796c-0.29,0.634-0.617,1.352-1.28,1.893   c-0.328,0.268-0.788,0.301-1.148,0.082c-0.361-0.218-0.547-0.64-0.464-1.053c0.093-0.465,0.089-0.972,0.084-1.509   c-0.003-0.433-0.007-0.881,0.039-1.346c0.063-0.653,0.279-1.279,0.47-1.831c0.065-0.19,0.131-0.378,0.188-0.563l0.083-0.271   c0.485-1.585,0.987-3.225,1.645-4.748c0.45-1.046,1.154-1.46,1.665-1.623c1.323-0.422,2.77,0.289,4.137,1.119   c0.296,0.18,0.611,0.355,0.932,0.535c1.079,0.603,2.302,1.286,3.176,2.308c0.396,0.462,0.646,1.013,0.866,1.499   c0.095,0.21,0.188,0.418,0.293,0.608c0.448,0.811,0.792,1.542,1.08,2.298c0.488,1.281,0.843,2.551,1.219,3.896l0.165,0.591   c0.369,1.311,0.646,2.646,0.914,3.938c0.03,0.146,0.06,0.29,0.09,0.434c0.094-0.305,0.187-0.608,0.278-0.91   c1.033-3.381,2.101-6.878,4.308-9.76c1.283-1.677,3.123-2.462,5.055-2.167c2.101,0.327,3.889,1.873,4.666,4.037   c0.184,0.51,0.352,1.056,0.521,1.608c0.3,0.979,0.61,1.99,1.026,2.799c0.178,0.345,0.141,0.761-0.096,1.067   c-0.237,0.309-0.631,0.449-1.008,0.367c-0.52-0.114-0.923-0.437-1.279-0.721c-0.122-0.098-0.241-0.196-0.357-0.268   c-0.361-0.221-1.264-0.77-1.967-1.017c-0.044,0.154-0.087,0.352-0.116,0.49c-0.038,0.174-0.075,0.346-0.118,0.506   c-0.362,1.343-0.576,2.668-0.802,4.07c-0.138,0.855-0.276,1.715-0.45,2.585c-0.068,0.344-0.135,0.708-0.203,1.086   c-0.364,1.999-0.816,4.486-2.067,6.194c-0.585,0.801-1.595,1.563-2.511,1.895c-0.372,0.134-0.874,0.158-1.455,0.187   c-0.232,0.011-0.594,0.028-0.871,0.06c0.026,0.211,0.067,0.458,0.095,0.623c0.065,0.389,0.121,0.724,0.111,0.998   c-0.018,0.518-0.428,0.937-0.944,0.964C25.878,47.988,25.387,48.001,24.907,48.001z M23.375,45.968   c0.169,0,0.327,0.001,0.463,0.008c0.425,0.022,0.875,0.03,1.334,0.024c-0.12-0.76-0.176-1.416,0.178-1.913   c0.474-0.67,1.426-0.716,2.529-0.769c0.299-0.015,0.751-0.036,0.883-0.073c0.533-0.193,1.212-0.707,1.564-1.19   c0.98-1.338,1.37-3.48,1.714-5.371c0.07-0.39,0.139-0.767,0.21-1.121c0.169-0.845,0.303-1.68,0.437-2.51   c0.225-1.392,0.456-2.83,0.845-4.273c0.035-0.128,0.064-0.267,0.095-0.406c0.143-0.661,0.319-1.484,1.021-1.91   c0.272-0.166,0.73-0.328,1.354-0.158c0.495,0.133,1.036,0.376,1.555,0.648c-0.029-0.097-0.06-0.194-0.089-0.291   c-0.16-0.521-0.317-1.036-0.491-1.519c-0.53-1.475-1.715-2.523-3.092-2.737c-1.196-0.187-2.323,0.313-3.159,1.406   c-1.987,2.597-2.956,5.77-3.982,9.129c-0.437,1.431-0.889,2.91-1.424,4.326c-0.152,0.404-0.551,0.67-0.978,0.646   c-0.431-0.019-0.802-0.311-0.92-0.726c-0.371-1.304-0.649-2.647-0.919-3.947c-0.261-1.258-0.53-2.559-0.88-3.803l-0.167-0.594   c-0.363-1.3-0.706-2.526-1.162-3.722c-0.253-0.667-0.56-1.316-0.962-2.045c-0.13-0.236-0.246-0.49-0.363-0.748   c-0.182-0.4-0.353-0.777-0.565-1.025c-0.641-0.75-1.653-1.315-2.631-1.861c-0.343-0.191-0.679-0.379-0.996-0.571   c-0.507-0.309-1.86-1.127-2.49-0.923c-0.063,0.02-0.252,0.081-0.437,0.51c-0.614,1.422-1.1,3.008-1.568,4.541l-0.084,0.273   c-0.064,0.208-0.136,0.417-0.209,0.629c-0.02,0.057-0.039,0.113-0.059,0.169c0.668-0.735,1.511-1.312,2.451-1.201   c0.436,0.051,0.788,0.381,0.867,0.813l0.084,0.434c0.061,0.302,0.121,0.61,0.166,0.917c0.164,1.122,0.317,2.261,0.472,3.404   c0.334,2.475,0.68,5.033,1.141,7.493c0.45,2.402,0.998,4.172,2.339,5.569c1.118,1.167,3.015,1.993,4.833,2.104   c0.45,0.027,0.825,0.352,0.917,0.793c0.099,0.472,0.003,1.048-0.153,1.569c0.074-0.001,0.142-0.001,0.202,0   C23.289,45.968,23.332,45.968,23.375,45.968z"/><path d="M29.962,9.238H16.207c-0.552,0-1-0.448-1-1s0.448-1,1-1h13.755c0.553,0,1,0.448,1,1S30.515,9.238,29.962,9.238z"/><path d="M31.842,15.93H14.328c-0.552,0-1-0.448-1-1s0.448-1,1-1h17.514c0.553,0,1,0.448,1,1S32.395,15.93,31.842,15.93z"/><path d="M19.936,22.786c-0.552,0-1-0.448-1-1V2.143c0-0.552,0.448-1,1-1s1,0.448,1,1v19.643   C20.936,22.338,20.488,22.786,19.936,22.786z"/><path d="M26.393,31.693c-0.553,0-1-0.447-1-1V2.143c0-0.552,0.447-1,1-1s1,0.448,1,1v28.55   C27.393,31.246,26.945,31.693,26.393,31.693z"/><path d="M31.505,22.621H19.819c-0.552,0-1-0.448-1-1s0.448-1,1-1h11.686c0.553,0,1,0.448,1,1S32.058,22.621,31.505,22.621z"/><path d="M26.912,29.313h-4.568c-0.552,0-1-0.447-1-1s0.448-1,1-1h4.568c0.553,0,1,0.447,1,1S27.465,29.313,26.912,29.313z"/></g><text x="0" y="63" fill="#000000" font-size="5px" font-weight="bold" font-family="'Helvetica Neue', Helvetica, Arial-Unicode, Arial, Sans-serif">Created by Creative Stall</text><text x="0" y="68" fill="#000000" font-size="5px" font-weight="bold" font-family="'Helvetica Neue', Helvetica, Arial-Unicode, Arial, Sans-serif">from the Noun Project</text></svg>