<svg xmlns="http://www.w3.org/2000/svg" xmlns:xlink="http://www.w3.org/1999/xlink" version="1.1" x="0px" y="0px" viewBox="0 0 100 125" enable-background="new 0 0 100 100" xml:space="preserve"><path d="M50.143,93.5c-16.553,0-30.508-15.032-32.462-34.965c-0.052-0.53,0.14-1.055,0.522-1.426L30.98,44.692  c0.668-0.65,1.728-0.662,2.41-0.028l16.753,15.552l17.707-15.59c0.697-0.613,1.751-0.576,2.402,0.084l11.893,12.054  c0.362,0.366,0.543,0.874,0.498,1.386C80.826,78.303,66.854,93.5,50.143,93.5z M21.253,59.025C23.324,76.743,35.625,90,50.143,90  c14.67,0,26.995-13.427,28.934-31.363L68.921,48.345L51.268,63.888c-0.673,0.593-1.689,0.58-2.347-0.031L32.228,48.36L21.253,59.025  z M50.149,56.79c-0.426,0-0.853-0.155-1.187-0.464L32.046,40.707L20.172,52.148c-0.505,0.486-1.253,0.625-1.899,0.35  c-0.646-0.274-1.065-0.909-1.065-1.61c0-20.96,14.034-44.388,32.816-44.388c19.048,0,32.557,23.117,32.768,43.865  c0.007,0.713-0.419,1.359-1.078,1.633c-0.659,0.275-1.418,0.122-1.918-0.388L69.062,40.716L51.306,56.354  C50.975,56.645,50.562,56.79,50.149,56.79z M32.021,36.552c0.426,0,0.852,0.154,1.187,0.464l16.969,15.667l17.814-15.688  c0.698-0.614,1.752-0.576,2.403,0.085l8.641,8.771C77.055,26.573,64.036,10,50.024,10c-14.312,0-27.432,16.952-29.131,36.593  l9.913-9.552C31.146,36.715,31.583,36.552,32.021,36.552z"/><text x="0" y="115" fill="#000000" font-size="5px" font-weight="bold" font-family="'Helvetica Neue', Helvetica, Arial-Unicode, Arial, Sans-serif">Created by Alberto Gongora</text><text x="0" y="120" fill="#000000" font-size="5px" font-weight="bold" font-family="'Helvetica Neue', Helvetica, Arial-Unicode, Arial, Sans-serif">from the Noun Project</text></svg>