<svg xmlns="http://www.w3.org/2000/svg" xmlns:xlink="http://www.w3.org/1999/xlink" version="1.1" x="0px" y="0px" viewBox="0 0 100 125" enable-background="new 0 0 100 100" xml:space="preserve"><path d="M96.039,47.888c-0.707-0.672-17.578-16.449-38.84-16.449c-17.151,0-31.44,10.263-36.697,14.585L8.618,34.141  c-0.832-0.833-2.085-1.083-3.171-0.631c-1.088,0.45-1.797,1.511-1.797,2.688l0.001,27.603c0,1.178,0.709,2.238,1.797,2.689  c0.36,0.148,0.738,0.221,1.113,0.221c0.757,0,1.502-0.295,2.059-0.852l11.882-11.885C25.76,58.297,40.048,68.56,57.199,68.56  c21.262,0,38.133-15.777,38.84-16.449c0.58-0.55,0.907-1.313,0.907-2.111C96.946,49.201,96.619,48.438,96.039,47.888z   M44.612,60.694c-1.695-3.275-2.599-6.938-2.599-10.653c0-3.751,0.921-7.452,2.649-10.75c1.403-0.441,2.847-0.826,4.328-1.138  C47.58,41.923,46.832,45.94,46.832,50c0,4.059,0.748,8.076,2.157,11.848C47.492,61.529,46.031,61.141,44.612,60.694z M9.471,56.774  v-13.55l6.775,6.775L9.471,56.774z M37.275,42.228c-0.707,2.534-1.082,5.163-1.082,7.813c0,2.615,0.365,5.211,1.054,7.716  c-5.478-2.642-9.83-5.745-12.377-7.758C27.422,47.982,31.784,44.872,37.275,42.228z M55.705,62.685  c-1.992-3.905-3.053-8.266-3.053-12.685c0-4.42,1.062-8.78,3.054-12.686c0.497-0.021,0.991-0.055,1.493-0.055  c0.951,0,1.894,0.042,2.828,0.113c-1.605,3.993-2.445,8.289-2.445,12.627c0,4.338,0.84,8.635,2.446,12.628  c-0.935,0.07-1.878,0.111-2.829,0.111C56.697,62.739,56.203,62.705,55.705,62.685z M65.979,61.719  c-1.687-3.654-2.577-7.662-2.577-11.719c0-4.056,0.891-8.063,2.574-11.714c10.666,2.401,19.453,8.474,23.555,11.716  C85.436,53.249,76.663,59.322,65.979,61.719z"/><circle cx="73.981" cy="49.999" r="3.104"/><text x="0" y="115" fill="#000000" font-size="5px" font-weight="bold" font-family="'Helvetica Neue', Helvetica, Arial-Unicode, Arial, Sans-serif">Created by Andrey Vasiliev</text><text x="0" y="120" fill="#000000" font-size="5px" font-weight="bold" font-family="'Helvetica Neue', Helvetica, Arial-Unicode, Arial, Sans-serif">from the Noun Project</text></svg>