<svg xmlns="http://www.w3.org/2000/svg" xmlns:xlink="http://www.w3.org/1999/xlink" version="1.1" x="0px" y="0px" viewBox="0 0 90 112.5" enable-background="new 0 0 90 90" xml:space="preserve"><g><path d="M81.847,30.967c-0.046-0.303-0.127-0.598-0.193-0.898c-0.07-0.31-0.132-0.621-0.223-0.926   c-0.129-0.435-0.294-0.861-0.465-1.286c-0.054-0.131-0.102-0.262-0.16-0.393c-2.249-5.144-7.591-9.469-14.685-12.133   c-3.488-1.398-7.436-2.488-11.769-3.176c-4.943-0.914-9.015-1.404-15.601-1.135c-17.719,0.724-30.999,9.6-30.891,20.646   c0.036,3.707,1.288,6.89,3.709,9.286l0.265,28.997c0.017,1.894,0.92,3.685,2.402,4.846c0.294,0.384,0.705,0.677,1.197,0.821   l10.286,2.998c0.154,0.044,0.311,0.069,0.468,0.079c0.456,0.104,0.925,0.171,1.412,0.171h44.267c3.496,0,6.342-2.845,6.342-6.342   L78.206,42.8c2.52-2.684,3.796-6.012,3.796-9.895C82.002,32.252,81.945,31.607,81.847,30.967z M17.263,71.259   c-0.493-0.289-0.789-0.795-0.795-1.354l-0.265-28.997c-0.015-1.67-0.93-2.631-1.258-2.975c-1.624-1.714-2.425-3.779-2.451-6.314   c-0.063-6.483,6.952-12.15,17.072-14.646c-7.371,3.749-12.109,9.492-12.109,15.931c0,3.803,1.274,7.087,3.797,9.629v29.951   l-3.821-1.114C17.379,71.331,17.322,71.294,17.263,71.259z M74.671,39.789c-0.411,0.416-1.101,1.342-1.101,2.88v29.853   c0,0.941-0.766,1.707-1.707,1.707H27.597c-0.941,0-1.707-0.766-1.707-1.707V42.534c0-1.705-0.936-2.693-1.266-3.041   c-1.702-1.811-2.531-3.966-2.531-6.587c0-8.565,12.657-15.802,27.638-15.802c4.588,0,8.954,0.685,12.809,1.873   c8.191,2.889,13.813,7.551,14.701,12.544c0.073,0.458,0.127,0.919,0.127,1.386C77.367,35.689,76.482,37.942,74.671,39.789z"/></g><text x="0" y="105" fill="#000000" font-size="5px" font-weight="bold" font-family="'Helvetica Neue', Helvetica, Arial-Unicode, Arial, Sans-serif">Created by T Com</text><text x="0" y="110" fill="#000000" font-size="5px" font-weight="bold" font-family="'Helvetica Neue', Helvetica, Arial-Unicode, Arial, Sans-serif">from the Noun Project</text></svg>