<svg xmlns:dc="http://purl.org/dc/elements/1.1/" xmlns:cc="http://creativecommons.org/ns#" xmlns:rdf="http://www.w3.org/1999/02/22-rdf-syntax-ns#" xmlns:svg="http://www.w3.org/2000/svg" xmlns="http://www.w3.org/2000/svg" xmlns:sodipodi="http://sodipodi.sourceforge.net/DTD/sodipodi-0.dtd" xmlns:inkscape="http://www.inkscape.org/namespaces/inkscape" viewBox="0 0 48 60.00000125" version="1.1" x="0px" y="0px"><g transform="translate(0,-1004.3622)"><path style="color:#000000;font-style:normal;font-variant:normal;font-weight:normal;font-stretch:normal;font-size:medium;line-height:normal;font-family:sans-serif;text-indent:0;text-align:start;text-decoration:none;text-decoration-line:none;text-decoration-style:solid;text-decoration-color:#000000;letter-spacing:normal;word-spacing:normal;text-transform:none;direction:ltr;block-progression:tb;writing-mode:lr-tb;baseline-shift:baseline;text-anchor:start;white-space:normal;clip-rule:nonzero;display:inline;overflow:visible;visibility:visible;opacity:1;isolation:auto;mix-blend-mode:normal;color-interpolation:sRGB;color-interpolation-filters:linearRGB;solid-color:#000000;solid-opacity:1;fill:#000000;fill-opacity:1;fill-rule:evenodd;stroke:none;stroke-width:2;stroke-linecap:round;stroke-linejoin:round;stroke-miterlimit:4;stroke-dasharray:none;stroke-dashoffset:0;stroke-opacity:1;color-rendering:auto;image-rendering:auto;shape-rendering:auto;text-rendering:auto;enable-background:accumulate" d="m 24.939598,1004.3642 a 1.0000212,1.0001 0 0 0 -0.677681,0.3222 l -21.9982659,24 A 1.0000212,1.0001 0 0 0 2,1029.3622 l 0,7.1758 a 1.0000212,1.0001 0 0 0 0.6659631,0.9434 c 0.801338,0.2833 1.3326866,1.0327 1.3338792,1.8828 -0.00145,0.8497 -0.5326633,1.5995 -1.3338792,1.8828 A 1.0000212,1.0001 0 0 0 2,1042.1884 l 0,9.1738 a 1.0000212,1.0001 0 0 0 1.3631737,0.9317 l 9.4816743,-3.7012 a 1.0000212,1.0001 0 0 0 0.3945,-1.582 c -0.155313,-0.181 -0.239756,-0.4119 -0.240215,-0.6504 10e-4,-0.5632 0.436484,-0.9981 0.999921,-0.9981 0.546618,0 0.976208,0.417 0.996016,0.9649 a 1.0000212,1.0001 0 0 0 1.363173,0.8945 l 28.001699,-10.9277 a 1.0000212,1.0001 0 0 0 0.636668,-0.9317 l 0,-12 a 1.0000212,1.0001 0 0 0 -0.999921,-1 c -0.564102,0 -0.999921,-0.4358 -0.999921,-1 0,-0.5641 0.435819,-1 0.999921,-1 a 1.0000212,1.0001 0 0 0 0.999921,-1 l 0,-5 a 1.0000212,1.0001 0 0 0 -0.57222,-0.9023 l -18.998503,-9 a 1.0000212,1.0001 0 0 0 -0.486289,-0.096 z m 0.296851,2.2168 17.760319,8.414 0,3.7852 c -1.106414,0.4435 -1.999842,1.3255 -1.999842,2.582 0,1.2567 0.893231,2.1406 1.999842,2.584 l 0,10.7344 -26.546735,10.3594 c -0.510814,-0.9357 -1.322927,-1.6778 -2.450979,-1.6778 -1.644861,0 -2.999763,1.355 -2.999763,3 4.94e-4,0.257 0.195384,0.4561 0.259745,0.7012 l -7.2591937,2.8359 0,-7.2714 c 1.1561341,-0.7187 1.9987908,-1.8649 1.9998424,-3.2637 -0.00196,-1.3979 -0.8444163,-2.5435 -1.9998424,-3.2617 l 0,-6.3476 21.2366067,-23.1719 z"/><path style="color:#000000;font-style:normal;font-variant:normal;font-weight:normal;font-stretch:normal;font-size:medium;line-height:normal;font-family:sans-serif;text-indent:0;text-align:start;text-decoration:none;text-decoration-line:none;text-decoration-style:solid;text-decoration-color:#000000;letter-spacing:normal;word-spacing:normal;text-transform:none;direction:ltr;block-progression:tb;writing-mode:lr-tb;baseline-shift:baseline;text-anchor:start;white-space:normal;clip-rule:nonzero;display:inline;overflow:visible;visibility:visible;opacity:1;isolation:auto;mix-blend-mode:normal;color-interpolation:sRGB;color-interpolation-filters:linearRGB;solid-color:#000000;solid-opacity:1;fill:#000000;fill-opacity:1;fill-rule:evenodd;stroke:none;stroke-width:2;stroke-linecap:round;stroke-linejoin:round;stroke-miterlimit:4;stroke-dasharray:none;stroke-dashoffset:0;stroke-opacity:1;color-rendering:auto;image-rendering:auto;shape-rendering:auto;text-rendering:auto;enable-background:accumulate" d="m 44.002548,1013.3622 a 1.0000212,1.0001 0 0 0 -0.363253,0.066 l -40.9694259,14.9907 a 1.0002863,1.0003651 0 1 0 0.6874458,1.8789 l 40.9694261,-14.9903 a 1.0000212,1.0001 0 0 0 -0.324193,-1.9453 z"/><path style="color:#000000;font-style:normal;font-variant:normal;font-weight:normal;font-stretch:normal;font-size:medium;line-height:normal;font-family:sans-serif;text-indent:0;text-align:start;text-decoration:none;text-decoration-line:none;text-decoration-style:solid;text-decoration-color:#000000;letter-spacing:normal;word-spacing:normal;text-transform:none;direction:ltr;block-progression:tb;writing-mode:lr-tb;baseline-shift:baseline;text-anchor:start;white-space:normal;clip-rule:nonzero;display:inline;overflow:visible;visibility:visible;opacity:1;isolation:auto;mix-blend-mode:normal;color-interpolation:sRGB;color-interpolation-filters:linearRGB;solid-color:#000000;solid-opacity:1;fill:#000000;fill-opacity:1;fill-rule:nonzero;stroke:none;stroke-width:2;stroke-linecap:round;stroke-linejoin:round;stroke-miterlimit:4;stroke-dasharray:none;stroke-dashoffset:0;stroke-opacity:1;color-rendering:auto;image-rendering:auto;shape-rendering:auto;text-rendering:auto;enable-background:accumulate" d="m 20.998502,1032.3622 c -2.19712,0 -3.999684,1.8027 -3.999684,4 0,2.1973 1.802564,4 3.999684,4 2.197121,0 3.999685,-1.8027 3.999685,-4 0,-2.1973 -1.802564,-4 -3.999685,-4 z m 0,2 c 1.116326,0 1.999843,0.8836 1.999843,2 0,1.1164 -0.883517,2 -1.999843,2 -1.116326,0 -1.999842,-0.8836 -1.999842,-2 0,-1.1164 0.883516,-2 1.999842,-2 z"/><path style="color:#000000;font-style:normal;font-variant:normal;font-weight:normal;font-stretch:normal;font-size:medium;line-height:normal;font-family:sans-serif;text-indent:0;text-align:start;text-decoration:none;text-decoration-line:none;text-decoration-style:solid;text-decoration-color:#000000;letter-spacing:normal;word-spacing:normal;text-transform:none;direction:ltr;block-progression:tb;writing-mode:lr-tb;baseline-shift:baseline;text-anchor:start;white-space:normal;clip-rule:nonzero;display:inline;overflow:visible;visibility:visible;opacity:1;isolation:auto;mix-blend-mode:normal;color-interpolation:sRGB;color-interpolation-filters:linearRGB;solid-color:#000000;solid-opacity:1;fill:#000000;fill-opacity:1;fill-rule:nonzero;stroke:none;stroke-width:2;stroke-linecap:round;stroke-linejoin:round;stroke-miterlimit:4;stroke-dasharray:none;stroke-dashoffset:0;stroke-opacity:1;color-rendering:auto;image-rendering:auto;shape-rendering:auto;text-rendering:auto;enable-background:accumulate" d="m 36.997241,1025.3622 c -2.197121,0 -3.999685,1.8027 -3.999685,4 0,2.1973 1.802564,4 3.999685,4 2.197121,0 3.999685,-1.8027 3.999685,-4 0,-2.1973 -1.802564,-4 -3.999685,-4 z m 0,2 c 1.116326,0 1.999842,0.8836 1.999842,2 0,1.1164 -0.883516,2 -1.999842,2 -1.116326,0 -1.999842,-0.8836 -1.999842,-2 0,-1.1164 0.883516,-2 1.999842,-2 z"/><path style="color:#000000;font-style:normal;font-variant:normal;font-weight:normal;font-stretch:normal;font-size:medium;line-height:normal;font-family:sans-serif;text-indent:0;text-align:start;text-decoration:none;text-decoration-line:none;text-decoration-style:solid;text-decoration-color:#000000;letter-spacing:normal;word-spacing:normal;text-transform:none;direction:ltr;block-progression:tb;writing-mode:lr-tb;baseline-shift:baseline;text-anchor:start;white-space:normal;clip-rule:nonzero;display:inline;overflow:visible;visibility:visible;opacity:1;isolation:auto;mix-blend-mode:normal;color-interpolation:sRGB;color-interpolation-filters:linearRGB;solid-color:#000000;solid-opacity:1;fill:#000000;fill-opacity:1;fill-rule:nonzero;stroke:none;stroke-width:2;stroke-linecap:round;stroke-linejoin:round;stroke-miterlimit:4;stroke-dasharray:none;stroke-dashoffset:0;stroke-opacity:1;color-rendering:auto;image-rendering:auto;shape-rendering:auto;text-rendering:auto;enable-background:accumulate" d="m 26.998029,1024.3622 c -1.64488,0 -2.999763,1.355 -2.999763,3 0,1.645 1.354883,3 2.999763,3 1.644881,0 2.999764,-1.355 2.999764,-3 0,-1.645 -1.354883,-3 -2.999764,-3 z m 0,2 c 0.564085,0 0.999922,0.4359 0.999922,1 0,0.5642 -0.435837,1 -0.999922,1 -0.564084,0 -0.999921,-0.4358 -0.999921,-1 0,-0.5641 0.435837,-1 0.999921,-1 z"/><path style="color:#000000;font-style:normal;font-variant:normal;font-weight:normal;font-stretch:normal;font-size:medium;line-height:normal;font-family:sans-serif;text-indent:0;text-align:start;text-decoration:none;text-decoration-line:none;text-decoration-style:solid;text-decoration-color:#000000;letter-spacing:normal;word-spacing:normal;text-transform:none;direction:ltr;block-progression:tb;writing-mode:lr-tb;baseline-shift:baseline;text-anchor:start;white-space:normal;clip-rule:nonzero;display:inline;overflow:visible;visibility:visible;opacity:1;isolation:auto;mix-blend-mode:normal;color-interpolation:sRGB;color-interpolation-filters:linearRGB;solid-color:#000000;solid-opacity:1;fill:#000000;fill-opacity:1;fill-rule:nonzero;stroke:none;stroke-width:2;stroke-linecap:round;stroke-linejoin:round;stroke-miterlimit:4;stroke-dasharray:none;stroke-dashoffset:0;stroke-opacity:1;color-rendering:auto;image-rendering:auto;shape-rendering:auto;text-rendering:auto;enable-background:accumulate" d="m 9.9993694,1029.3622 c -1.6448799,0 -2.9997635,1.355 -2.9997635,3 0,1.645 1.3548836,3 2.9997635,3 1.6448806,0 2.9997636,-1.355 2.9997636,-3 0,-1.645 -1.354883,-3 -2.9997636,-3 z m 0,2 c 0.5640846,0 0.9999216,0.4359 0.9999216,1 0,0.5642 -0.435837,1 -0.9999216,1 -0.5640849,0 -0.9999212,-0.4358 -0.9999212,-1 0,-0.5641 0.4358363,-1 0.9999212,-1 z"/><path style="color:#000000;font-style:normal;font-variant:normal;font-weight:normal;font-stretch:normal;font-size:medium;line-height:normal;font-family:sans-serif;text-indent:0;text-align:start;text-decoration:none;text-decoration-line:none;text-decoration-style:solid;text-decoration-color:#000000;letter-spacing:normal;word-spacing:normal;text-transform:none;direction:ltr;block-progression:tb;writing-mode:lr-tb;baseline-shift:baseline;text-anchor:start;white-space:normal;clip-rule:nonzero;display:inline;overflow:visible;visibility:visible;opacity:1;isolation:auto;mix-blend-mode:normal;color-interpolation:sRGB;color-interpolation-filters:linearRGB;solid-color:#000000;solid-opacity:1;fill:#000000;fill-opacity:1;fill-rule:nonzero;stroke:none;stroke-width:2;stroke-linecap:round;stroke-linejoin:round;stroke-miterlimit:4;stroke-dasharray:none;stroke-dashoffset:0;stroke-opacity:1;color-rendering:auto;image-rendering:auto;shape-rendering:auto;text-rendering:auto;enable-background:accumulate" d="m 25.998108,1011.3622 c -1.64488,0 -2.999763,1.355 -2.999763,3 0,1.645 1.354883,3 2.999763,3 1.644881,0 2.999764,-1.355 2.999764,-3 0,-1.645 -1.354883,-3 -2.999764,-3 z m 0,2 c 0.564085,0 0.999921,0.4359 0.999921,1 0,0.5642 -0.435836,1 -0.999921,1 -0.564084,0 -0.999921,-0.4358 -0.999921,-1 0,-0.5641 0.435837,-1 0.999921,-1 z"/></g><text x="0" y="63.000001" fill="#000000" font-size="5px" font-weight="bold" font-family="'Helvetica Neue', Helvetica, Arial-Unicode, Arial, Sans-serif">Created by anbileru adaleru</text><text x="0" y="68.000001" fill="#000000" font-size="5px" font-weight="bold" font-family="'Helvetica Neue', Helvetica, Arial-Unicode, Arial, Sans-serif">from the Noun Project</text></svg>