<svg xmlns="http://www.w3.org/2000/svg" xmlns:xlink="http://www.w3.org/1999/xlink" version="1.1" x="0px" y="0px" viewBox="0 0 64 80" enable-background="new 0 0 64 64" xml:space="preserve"><g><path d="M31.2,54.9L20,59.5V31.1l17.3-8.3c0.4,0,0.7-0.1,1.1-0.4c0.9-0.6,1.1-1.9,0.5-2.8L31,8.5V4c0-1.4-0.7-2.6-1.8-3.4   c-1.1-0.7-2.5-0.9-3.8-0.3l-15,6.4C9,7.4,8,8.8,8,10.5v6.1l-5.5,6.6c0,0,0,0.1-0.1,0.1c0,0.1-0.1,0.1-0.1,0.2   c0,0.1-0.1,0.1-0.1,0.2c0,0.1-0.1,0.1-0.1,0.2c0,0.1,0,0.1-0.1,0.2c0,0.1,0,0.1,0,0.2c0,0.1,0,0.1,0,0.2c0,0,0,0.1,0,0.1v32.8   c0,0.9,0.6,1.6,1.4,1.9l15.1,4.8c0,0,0,0,0,0c0.2,0.1,0.4,0.1,0.6,0.1c0.2,0,0.4,0,0.5-0.1c0,0,0.1,0,0.1,0c0,0,0.1,0,0.1,0   l12.9-5.3c1-0.4,1.5-1.6,1.1-2.6S32.3,54.5,31.2,54.9z M19.9,28.7l-7.6-11.3l15.4-6.6l7.6,10.8L20,28.9   C19.9,28.8,19.9,28.7,19.9,28.7z M27,4v4.8l-15,6.4l0-4.9L27,4z M11,19.1l6.4,9.6L6.9,24.1L11,19.1z M6,25.8l12,5.3v28.4L6,55.7   V25.8z"/><path d="M62,29.4c0-5.1-11.7-5.4-14-5.4s-14,0.3-14,5.4c0,0.1,0,0.2,0,0.2c0,0.1,0,0.2,0,0.4l1.9,28.8c0,0.1,0,0.2,0,0.2   c0.5,3.6,7.5,5,12,5s11.6-1.4,12-5c0-0.1,0-0.2,0-0.2L62,30c0-0.1,0-0.3,0-0.4C62,29.5,62,29.4,62,29.4z M57.3,40.2   c-1.8-0.2-3.5-0.8-5.2-1.3c-2.1-0.7-4.3-1.4-6.5-1.4c-2.7,0-5.3,0.6-7,1.2l-0.4-5.3c3.6,1.2,8.4,1.3,9.8,1.3s6.2-0.1,9.8-1.3   L57.3,40.2z M48,28c4.6,0,7.8,0.7,9.3,1.4c-1.5,0.6-4.7,1.4-9.3,1.4s-7.8-0.7-9.3-1.4C40.2,28.7,43.4,28,48,28z M39.9,58.2   l-1.2-17.4c1.5-0.6,4.2-1.3,6.9-1.3c1.9,0,3.9,0.7,5.9,1.3c1.8,0.6,3.7,1.2,5.7,1.4l-1.1,16C55.3,58.9,52,60,48,60   S40.7,58.9,39.9,58.2z"/></g><text x="0" y="79" fill="#000000" font-size="5px" font-weight="bold" font-family="'Helvetica Neue', Helvetica, Arial-Unicode, Arial, Sans-serif">Created by Hardini Dwi Lestari</text><text x="0" y="84" fill="#000000" font-size="5px" font-weight="bold" font-family="'Helvetica Neue', Helvetica, Arial-Unicode, Arial, Sans-serif">from the Noun Project</text></svg>