<svg xmlns="http://www.w3.org/2000/svg" xmlns:xlink="http://www.w3.org/1999/xlink" viewBox="0 0 24 30" version="1.1" x="0px" y="0px"><title>vegetable_044-peanuts-food-veggie-eat</title><desc>Created with Sketch.</desc><g stroke="none" stroke-width="1" fill="none" fill-rule="evenodd"><g transform="translate(-189.000000, -237.000000)" fill="#000000"><g transform="translate(186.000000, 235.000000)"><g transform="translate(12.646447, 13.353553) rotate(-45.000000) translate(-12.646447, -13.353553) translate(0.146447, 8.353553)"><path d="M9.78118461,9.64101273 C10.2789111,9.54426436 10.657409,9.477004 11.0256839,9.42289425 C11.3594753,9.37385108 11.6648608,9.33919106 11.9485021,9.31945663 C12.4573185,9.28405558 12.9935272,9.3159278 13.6430326,9.40879754 C13.9616965,9.45436181 14.2123546,9.49764823 14.805968,9.60586709 C16.6522585,9.94245561 17.5093609,10.0197812 18.6183669,9.82518323 C18.7064214,9.80973226 18.7914452,9.79427662 18.8735964,9.77878715 C20.2523477,9.51882575 20.8750636,9.25174092 21.5002871,8.70233986 C21.5853586,8.62758519 22.079215,8.16240073 22.2580245,8.00689185 C22.6150913,7.69635418 23.0109598,7.39878141 23.5251002,7.06829099 C25.0287959,6.10171253 24.8675731,4.54576996 23.4889373,3.07310816 C22.3315942,1.83683165 20.417124,0.749547974 18.646916,0.331321863 C17.6908736,0.10544901 16.7886769,0.196688645 15.1792923,0.555357408 C15.0458935,0.585191758 15.0458935,0.585191758 14.9132369,0.615080663 C13.6494672,0.899876213 13.1182993,0.991473265 12.5,0.991473265 C12.2983424,0.991473265 12.0880601,0.979549338 11.8682587,0.956232149 C11.262301,0.891950352 10.648679,0.755134386 9.79041165,0.514326496 C9.64144299,0.472529693 9.12211228,0.323867076 9.15350695,0.332800988 C8.9053152,0.262173619 8.72658803,0.213121353 8.55838219,0.170343103 C8.11301627,0.0570772646 7.78323391,-2.00728323e-13 7.5,-2.00728323e-13 C3.6648611,-2.00728323e-13 0.5,2.19105769 0.5,5 C0.5,7.80894231 3.6648611,10 7.5,10 C7.93860205,10 7.89450532,10.0077466 9.78118461,9.64101273 Z M1.5,5 C1.5,2.83837956 4.15543715,1 7.5,1 C7.82720587,1 7.74658738,0.979497037 9.52026887,1.47714677 C10.4280999,1.73186098 11.0886479,1.87913978 11.7627676,1.9506524 C12.0164461,1.97756338 12.2617515,1.99147326 12.5,1.99147326 C13.2194246,1.99147326 13.7938508,1.89241654 15.1330778,1.59061641 C15.2652662,1.5608332 15.2652662,1.5608332 15.3968167,1.53141229 C16.8631556,1.20462281 17.6551173,1.1245313 18.4169878,1.30452945 C19.9984564,1.67816434 21.7382285,2.66623185 22.7589094,3.75652549 C23.7658404,4.8321315 23.852557,5.66902266 22.9843755,6.22709139 C22.4294017,6.58382958 21.9949676,6.91039197 21.6017919,7.25233315 C21.403614,7.42468656 20.907265,7.89221888 20.840198,7.95115249 C20.3641147,8.36950005 19.9038276,8.56691865 18.6883126,8.79610209 C18.6103806,8.81079606 18.5295035,8.82549791 18.4455369,8.84023158 C17.4914803,9.00764047 16.7169163,8.9377613 14.9853172,8.62208163 C14.3789674,8.51154084 14.1202265,8.4668586 13.7845783,8.41886582 C13.070755,8.31679955 12.4674043,8.28093641 11.8790946,8.32186824 C11.5680439,8.34350969 11.2378384,8.38098667 10.880317,8.43351643 C10.4940216,8.4902739 10.1018943,8.55995624 9.59037535,8.6593856 C7.85047461,8.99758854 7.83674759,9 7.5,9 C4.15543715,9 1.5,7.16162044 1.5,5 Z"/><ellipse cx="6" cy="3.5" rx="1" ry="0.5"/><ellipse cx="7" cy="6.5" rx="1" ry="0.5"/><ellipse cx="10" cy="3.5" rx="1" ry="0.5"/><ellipse cx="11" cy="6.5" rx="1" ry="0.5"/><ellipse cx="14" cy="3.5" rx="1" ry="0.5"/><ellipse cx="15" cy="6.5" rx="1" ry="0.5"/><ellipse cx="18" cy="3.5" rx="1" ry="0.5"/><ellipse cx="19" cy="6.5" rx="1" ry="0.5"/></g><g transform="translate(16.745668, 18.862164) rotate(2.000000) translate(-16.745668, -18.862164) translate(6.245668, 13.862164)"><path d="M3.5,10 C3.93860205,10 3.89450532,10.0077466 5.78118461,9.64101273 C6.27891108,9.54426436 6.65740902,9.477004 7.02568393,9.42289425 C7.35947533,9.37385108 7.66486085,9.33919106 7.94850209,9.31945663 C8.4573185,9.28405558 8.99352725,9.3159278 9.64303257,9.40879754 C9.9616965,9.45436181 10.2123546,9.49764823 10.805968,9.60586709 C12.6522585,9.94245561 13.5093609,10.0197812 14.6183669,9.82518323 C14.7064214,9.80973226 14.7914452,9.79427662 14.8735964,9.77878715 C16.2523477,9.51882575 16.8750636,9.25174092 17.5002871,8.70233986 C17.5853586,8.62758519 18.079215,8.16240073 18.2580245,8.00689185 C18.6150913,7.69635418 19.0109598,7.39878141 19.5251002,7.06829099 C21.0287959,6.10171253 20.8675731,4.54576996 19.4889373,3.07310816 C18.3315942,1.83683165 16.417124,0.749547974 14.646916,0.331321863 C13.6908736,0.10544901 12.7886769,0.196688645 11.1792923,0.555357408 C11.0458935,0.585191758 11.0458935,0.585191758 10.9132369,0.615080663 C10.396441,0.731542679 10.1836402,0.777833114 9.9114961,0.83028362 C9.6403438,0.882542972 9.462896,1.14471992 9.51515536,1.41587222 C9.56741471,1.68702453 9.82959166,1.86447232 10.100744,1.81221297 C10.3867105,1.75709846 10.6058657,1.70942576 11.1330778,1.59061641 C11.2652662,1.5608332 11.2652662,1.5608332 11.3968167,1.53141229 C12.8631556,1.20462281 13.6551173,1.1245313 14.4169878,1.30452945 C15.9984564,1.67816434 17.7382285,2.66623185 18.7589094,3.75652549 C19.7658404,4.8321315 19.852557,5.66902266 18.9843755,6.22709139 C18.4294017,6.58382958 17.9949676,6.91039197 17.6017919,7.25233315 C17.403614,7.42468656 16.907265,7.89221888 16.840198,7.95115249 C16.3641147,8.36950005 15.9038276,8.56691865 14.6883126,8.79610209 C14.6103806,8.81079606 14.5295035,8.82549791 14.4455369,8.84023158 C13.4914803,9.00764047 12.7169163,8.9377613 10.9853172,8.62208163 C10.3789674,8.51154084 10.1202265,8.4668586 9.7845783,8.41886582 C9.07075498,8.31679955 8.4674043,8.28093641 7.87909457,8.32186824 C7.56804388,8.34350969 7.23783841,8.38098667 6.88031701,8.43351643 C6.49402157,8.4902739 6.10189431,8.55995624 5.59037535,8.6593856 C3.85047461,8.99758854 3.83674759,9 3.5,9 C2.67025792,9 1.86482356,8.88639571 1.1198128,8.66926169 C0.854700748,8.59199455 0.577147575,8.74427294 0.499880438,9.009385 C0.422613301,9.27449705 0.574891694,9.55205022 0.840003747,9.62931736 C1.67647023,9.87310624 2.57612465,10 3.5,10 Z"/><ellipse cx="7.9961947" cy="6.58715574" rx="1" ry="0.5"/><ellipse cx="10.9961947" cy="3.58715574" rx="1" ry="0.5"/><ellipse cx="11.9961947" cy="6.58715574" rx="1" ry="0.5"/><ellipse cx="14.9961947" cy="3.58715574" rx="1" ry="0.5"/><ellipse cx="15.9961947" cy="6.58715574" rx="1" ry="0.5"/></g></g></g></g><text x="0" y="39" fill="#000000" font-size="5px" font-weight="bold" font-family="'Helvetica Neue', Helvetica, Arial-Unicode, Arial, Sans-serif">Created by Pham Thi Dieu Linh</text><text x="0" y="44" fill="#000000" font-size="5px" font-weight="bold" font-family="'Helvetica Neue', Helvetica, Arial-Unicode, Arial, Sans-serif">from the Noun Project</text></svg>