<svg xmlns="http://www.w3.org/2000/svg" xmlns:xlink="http://www.w3.org/1999/xlink" version="1.1" x="0px" y="0px" viewBox="0 0 100 125" enable-background="new 0 0 100 100" xml:space="preserve"><path d="M51.121,64.026c-1.244-0.168-2.879-0.165-4.363-0.635c-2.852-0.903-3.803-3.517-2.087-5.983  c1.031-1.481,2.453-2.799,3.948-3.83c5.304-3.657,11.273-6.039,17.554-6.999c3.378-0.516,7.053,0.451,10.517,1.138  c2.06,0.408,2.722,2.128,1.651,4.001c-0.89,1.557-2.135,3.084-3.584,4.119C67.811,60.801,59.962,63.334,51.121,64.026z   M47.011,59.648c7.565,2.686,24.209-2.933,27.488-8.855c-5.003-2.368-9.771-0.908-14.517,0.889  C55.3,53.454,50.605,55.207,47.011,59.648z"/><path d="M21.625,68.591c-0.232,3.311-0.123,6.319-3.156,7.384c-3.031,1.064-5.014-1.237-6.571-3.352  c-5.305-7.21-8.318-15.291-8.576-24.304c-0.03-1.048,0.011-2.151,0.304-3.146c0.953-3.238,2.94-3.997,5.908-2.065  c7.139,4.648,9.071,12.057,11.102,19.469C21.225,64.728,21.373,67,21.625,68.591z M17.758,72.783  c0.169-1.688,0.565-3.212,0.427-4.686c-0.549-5.86-2.428-11.354-5.007-16.614c-1.266-2.582-3.488-4.084-6.024-5.378  C5.237,53.861,11.311,69.425,17.758,72.783z"/><path d="M59.231,25.299c-0.33,3.024-0.553,6.064-1.031,9.064c-0.267,1.68-0.845,3.337-1.483,4.924  c-0.763,1.898-1.892,3.617-4.246,3.639c-2.334,0.021-3.709-1.627-4.365-3.513c-1.08-3.102-2.003-6.306-2.531-9.542  c-0.904-5.539-0.684-11.11,0.758-16.564c0.401-1.516,0.965-3.067,1.81-4.372c2.044-3.155,4.227-2.939,6.384,0.199  C57.89,14.029,59.423,19.363,59.231,25.299z M52.704,39.614c2.738-4.145,2.868-8.737,3.001-13.289  c0.163-5.572-0.163-11.049-4.435-15.402C46.87,16.977,47.595,34.17,52.704,39.614z"/><path d="M31.595,89.502c-2.421-0.448-4.714-0.598-6.808-1.323c-3.431-1.188-4.166-4.263-1.644-6.875  c1.35-1.398,3.07-2.574,4.83-3.419c6.808-3.268,14.02-4.901,21.593-4.463c1.807,0.104,3.711,0.554,5.334,1.337  c2.586,1.247,2.836,3.415,0.788,5.434c-3.73,3.677-7.794,6.774-13.243,7.505C38.775,88.19,35.136,88.905,31.595,89.502z   M25.141,84.366c7.602,3.789,22.069,0.229,27.615-6.579C46.217,74.674,30.219,78.383,25.141,84.366z"/><path d="M44.452,43.57c-0.6,6.931-2.265,13.438-5.451,19.504c-0.906,1.725-2.142,3.398-3.588,4.69  c-2.437,2.177-5.136,1.493-6.388-1.49c-0.552-1.315-0.843-2.804-0.937-4.234c-0.442-6.737,0.786-13.306,3.496-19.374  c1.4-3.134,4.173-5.734,6.625-8.289c1.537-1.601,3.822-0.927,4.698,1.5C43.784,38.311,43.965,40.996,44.452,43.57z M39.89,37.739  c-5.214,4.359-5.842,5.355-7.868,15.324c-0.82,4.036-1.808,8.241,0.371,12.352C38.329,61.468,42.653,45.439,39.89,37.739z"/><path d="M79.231,66.194c-0.228,1.369-0.328,2.702-0.682,3.965c-1.99,7.118-5.419,13.479-10.367,18.972  c-1.135,1.259-2.483,2.419-3.938,3.278c-3.506,2.071-6.452,0.529-6.591-3.5c-0.067-1.945,0.271-3.971,0.798-5.856  c1.579-5.656,4.319-10.783,7.637-15.603c2.195-3.189,5.686-4.674,8.887-6.474c1.546-0.87,3.153-0.027,3.747,1.752  C79.09,63.829,79.078,65.059,79.231,66.194z M75.466,64.779c-7.833,2.839-10.101,10.016-12.981,16.587  c-1.144,2.611-2.311,5.491-1.087,8.68C68.758,86.021,76.448,72.02,75.466,64.779z"/><path d="M17.265,36.393c0.9-8.711,3.932-16.622,9.561-23.483c0.499-0.608,1.102-1.159,1.742-1.618c1.413-1.014,2.885-1.98,4.752-1.2  c1.827,0.763,1.62,2.483,1.941,4.026c2.095,10.06-2.619,17.995-7.996,25.696c-0.809,1.159-2.004,2.159-3.223,2.9  c-2.902,1.765-5.562,0.606-6.351-2.679C17.416,38.888,17.407,37.676,17.265,36.393z M21.248,39.921  c3.382-1.462,5.291-3.758,7.987-9.558c2.443-5.255,4.773-10.545,2.248-16.5C25.22,17.43,19.469,31.844,21.248,39.921z"/><path d="M82.295,65.468c0.578-4.339,0.93-7.757,1.53-11.13c0.273-1.534,0.927-3.033,1.611-4.451c0.764-1.586,1.864-2.931,3.881-2.94  c1.995-0.008,2.48,1.659,3.322,2.977c5.814,9.107,4.358,18.715,1.842,28.327c-0.596,2.276-1.779,4.665-4.673,4.758  c-3.127,0.101-4.436-2.394-5.046-4.799C83.631,73.76,82.99,69.185,82.295,65.468z M88.86,50.925c-4.476,8-3.733,24.797,1.086,28.486  C94.866,72.231,94.406,57.95,88.86,50.925z"/><path d="M88.768,42.369c-8.044-0.679-15.666-3.07-22.469-7.762c-1.386-0.956-2.683-2.229-3.603-3.63  c-1.66-2.528-0.661-4.573,2.256-5.288c11.194-2.742,20.443,1.636,29.162,7.948c0.421,0.305,0.761,0.737,1.089,1.15  c2.627,3.306,1.472,6.471-2.707,7.291C91.337,42.306,90.127,42.271,88.768,42.369z M65.937,29.169  c4.16,6.342,20.896,11.754,27.237,8.8c-1.728-3.304-4.915-4.719-7.995-6.061C79.141,29.276,73.069,26.383,65.937,29.169z"/><text x="0" y="115" fill="#000000" font-size="5px" font-weight="bold" font-family="'Helvetica Neue', Helvetica, Arial-Unicode, Arial, Sans-serif">Created by Marco Galtarossa</text><text x="0" y="120" fill="#000000" font-size="5px" font-weight="bold" font-family="'Helvetica Neue', Helvetica, Arial-Unicode, Arial, Sans-serif">from the Noun Project</text></svg>