<svg xmlns="http://www.w3.org/2000/svg" xmlns:xlink="http://www.w3.org/1999/xlink" version="1.1" x="0px" y="0px" viewBox="-255 347 100 125" style="enable-background:new -255 347 100 100;" xml:space="preserve"><g><g><path d="M-205,432.4c-3.8,0-6.7-0.7-6.9-0.8c-0.5-0.1-0.9-0.4-1.2-0.8c-5.3-6.8-4.1-14.9-4-15.3c0.1-0.8,0.7-1.4,1.4-1.7l12.3-4.8    c0.6-0.2,1.3-0.2,1.9,0.1c0.6,0.3,1,0.8,1.1,1.5c1,4,7.4,11.3,9.8,13.7c0.4,0.4,0.7,1,0.6,1.6c0,0.6-0.3,1.2-0.7,1.6    C-195,431.5-200.6,432.4-205,432.4z M-210,427.4c2.3,0.4,9.2,1.3,14.4-1.8c-2.4-2.6-6.4-7.4-8.4-11.6l-8.8,3.4    C-212.8,419.5-212.6,423.7-210,427.4z"/></g><g><path d="M-190.9,428.5c-0.9,0-1.7-0.5-2.1-1.4c-0.5-1.2,0.1-2.5,1.2-2.9c5.2-2.1,7.7-5.6,8.8-7.8c-6.7-2.3-13.6-5.7-16.2-6.9    c-0.7,0.4-1.3,1-1.3,1.4c0.1,1.2-0.7,2.4-2,2.5c-1.2,0.1-2.4-0.7-2.5-2c-0.4-3.5,2.9-5.8,4.9-6.5c0.6-0.2,1.3-0.2,1.8,0.1    c0.1,0.1,10.3,5.3,18.7,7.9c1.1,0.4,1.8,1.5,1.5,2.6c-0.1,0.4-2.1,8.8-12.2,12.8C-190.4,428.5-190.7,428.5-190.9,428.5z"/></g><g><path d="M-177.7,418.1c-0.2,0-0.5,0-0.7-0.1l-2.3-0.8c-1.2-0.4-1.8-1.7-1.4-2.9c0.4-1.2,1.7-1.8,2.9-1.4l0.2,0.1    c1.3-4.2,2-8.5,2.3-11.5c-4.9,2-13.9,5.1-21.7,4.1l-1.6,0c-2-0.1-3-1.1-3.4-1.8c-1.4-2.1-0.3-5.1,0-5.9c0.2-0.6,0.7-1,1.3-1.3    c13.1-4.9,19.7-19.4,19.8-19.5c0.5-1.1,1.8-1.6,3-1.1c1.1,0.5,1.6,1.8,1.1,3c-0.3,0.7-7.1,15.7-21.3,21.5    c-0.1,0.2-0.1,0.5-0.1,0.7l1.6,0.1c9.9,1.3,22.7-5.1,22.8-5.2c0.7-0.4,1.6-0.3,2.2,0.1c0.7,0.4,1.1,1.2,1,2    c0,0.4-0.3,10.3-3.6,18.7C-176,417.5-176.8,418.1-177.7,418.1z"/></g><g><path d="M-174.3,400.1c-0.8,0-1.6-0.5-2-1.3c-0.5-1.1-0.1-2.5,1.1-3c0.2-0.1,0.5-0.4,0.9-0.7c0.8-8.7-7.4-14.6-7.4-14.7    c-1-0.7-1.3-2.1-0.5-3.1c0.7-1,2.1-1.3,3.1-0.5c0.4,0.3,10.9,7.9,9.2,19.7c-0.1,0.5-0.3,0.9-0.6,1.2c-0.3,0.4-1.6,1.6-2.7,2.1    C-173.6,400-174,400.1-174.3,400.1z"/></g><g><path d="M-203.7,401.2c-3.2,0-6.8-1.5-9.9-4.2c-3.8-3.4-5.8-7.7-5.1-11.2c0.7-3.8,2.8-6.9,4.8-10c1.5-2.3,2.9-4.4,3.7-6.7    c1.2-3.3,3.8-10.9,12.5-8.8c5.5,1.3,9.8,5.4,13.9,9.3c1.8,1.7,3.5,3.3,5.3,4.6c1,0.8,1.2,2.2,0.4,3.2c-0.7,1-2.2,1.2-3.2,0.4    c-1.9-1.5-3.8-3.2-5.7-5c-3.7-3.5-7.5-7.1-11.8-8.2c-3.6-0.9-5.2,0.5-7.2,5.9c-1,2.8-2.6,5.3-4.2,7.7c-1.9,2.8-3.6,5.5-4.2,8.4    c-0.4,1.9,1.2,4.7,3.7,7c2.8,2.5,6.1,3.6,8.5,2.9c1.2-0.4,2.4,0.3,2.8,1.5c0.4,1.2-0.3,2.4-1.5,2.8    C-201.7,401.1-202.6,401.2-203.7,401.2z"/></g><g><path d="M-216.1,427.1c-12.7,0-22.8-8-23.3-8.4c-0.5-0.4-0.8-1.1-0.8-1.8s0.3-1.3,0.9-1.8c6.5-5.1,18.5-1.8,24.9,0.1    c1.2,0.3,1.9,1.6,1.5,2.8c-0.3,1.2-1.6,1.9-2.8,1.5c-4.3-1.2-12.4-3.5-17.8-2.3c4,2.4,11.3,5.9,19.3,5.2c1.2-0.1,2.3,0.8,2.4,2.1    c0.1,1.2-0.8,2.3-2.1,2.4C-214.5,427.1-215.3,427.1-216.1,427.1z"/></g><g><path d="M-221.1,434c-8.8,0-15.4-4.9-15.8-5.1c-0.5-0.4-0.9-1.1-0.9-1.7c0-0.7,0.3-1.3,0.8-1.8c0.5-0.4,5.2-4.3,7.9-5.2    c1.2-0.4,2.4,0.3,2.8,1.5s-0.3,2.4-1.5,2.8c-0.7,0.2-2.3,1.2-3.9,2.4c3.8,2,11.2,4.6,19.2,0.6c1.1-0.6,2.5-0.1,3,1s0.1,2.5-1,3    C-214.1,433.3-217.8,434-221.1,434z"/></g></g><text x="-255" y="462" fill="#000000" font-size="5px" font-weight="bold" font-family="'Helvetica Neue', Helvetica, Arial-Unicode, Arial, Sans-serif">Created by Joe Harrison</text><text x="-255" y="467" fill="#000000" font-size="5px" font-weight="bold" font-family="'Helvetica Neue', Helvetica, Arial-Unicode, Arial, Sans-serif">from the Noun Project</text></svg>