<svg xmlns="http://www.w3.org/2000/svg" xmlns:xlink="http://www.w3.org/1999/xlink" version="1.1" x="0px" y="0px" viewBox="0 0 100 125" enable-background="new 0 0 100 100" xml:space="preserve"><g><g><path d="M78.131,9.775c0,0,7.687,20.361,6.228,28.99c-1.459,8.627-7.996,12.772-9.662,14.924    c-1.662,2.154-7.489,11.391-11.609,14.717c-4.117,3.326-11.289,6.682-12.682,7.967c-1.393,1.285-7.757,11.363-17.906,13.238    c-2.407,0.445-4.603,0.614-6.553,0.614c-6.273,0-9.998-1.755-9.998-1.755s-2.908-5.508,5.43-12.236    c8.337-6.73,14.354-5.998,16.746-8.252c2.392-2.256,4.799-9.691,8.514-12.574c3.715-2.885,6.318-3.77,8.17-5.994    c1.851-2.223,4.818-9.883,9.52-15.297c4.701-5.414,10.498-9.576,10.877-13.123c0.378-3.545-1.688-7.711-1.28-9.01    C74.332,10.681,78.131,9.775,78.131,9.775 M78.134,3.774c-0.461,0-0.929,0.053-1.395,0.165c-4.72,1.126-7.593,3.229-8.54,6.251    c-0.689,2.198-0.172,4.19,0.376,6.299c0.294,1.13,0.686,2.641,0.678,3.604c-0.568,1.032-2.835,3.271-4.361,4.778    c-1.59,1.57-3.391,3.35-5.094,5.311c-3.375,3.887-5.865,8.57-7.683,11.99c-0.664,1.25-1.574,2.961-1.93,3.418    c-0.437,0.525-1.251,1.05-2.65,1.933c-1.245,0.785-2.794,1.762-4.576,3.146c-3.139,2.436-5.171,6.21-6.963,9.54    c-0.566,1.052-1.389,2.58-1.87,3.247c-0.438,0.173-1.265,0.422-1.898,0.613c-3.386,1.019-8.502,2.56-14.617,7.497    c-9.616,7.76-8.903,16.038-6.967,19.706c0.607,1.15,1.572,2.072,2.748,2.626c0.506,0.238,5.153,2.327,12.555,2.327    c2.507,0,5.078-0.24,7.643-0.714C44.21,93.549,51.037,85.077,53.951,81.46c0.176-0.218,0.381-0.473,0.53-0.653    c0.585-0.384,1.936-1.148,2.954-1.724c2.952-1.671,6.625-3.75,9.423-6.01c3.527-2.848,7.361-8.203,10.985-13.443    c0.657-0.95,1.278-1.848,1.582-2.247c0.17-0.195,0.704-0.7,1.096-1.071c2.894-2.739,8.281-7.838,9.754-16.546    c1.646-9.737-5.151-28.456-6.53-32.11C82.847,5.278,80.58,3.774,78.134,3.774L78.134,3.774z"/></g></g><text x="0" y="115" fill="#000000" font-size="5px" font-weight="bold" font-family="'Helvetica Neue', Helvetica, Arial-Unicode, Arial, Sans-serif">Created by factor[e] design initiative</text><text x="0" y="120" fill="#000000" font-size="5px" font-weight="bold" font-family="'Helvetica Neue', Helvetica, Arial-Unicode, Arial, Sans-serif">from the Noun Project</text></svg>