<svg xmlns="http://www.w3.org/2000/svg" xmlns:xlink="http://www.w3.org/1999/xlink" version="1.1" x="0px" y="0px" viewBox="0 0 100 125" enable-background="new 0 0 100 100" xml:space="preserve"><g><path fill="#000000" d="M30.68,77.104c6.053,5.047,13.839,8.082,22.333,8.082"/><path fill="#000000" d="M53.014,87.186c-8.619,0-17.005-3.035-23.614-8.546c-0.849-0.707-0.963-1.969-0.255-2.817   c0.708-0.848,1.968-0.961,2.817-0.255c5.892,4.913,13.369,7.618,21.053,7.618c1.104,0,2,0.896,2,2S54.118,87.186,53.014,87.186z"/></g><path fill="#000000" d="M37.567,55.561c0,10.375-8.411,18.791-18.785,18.791C8.409,74.352,0,65.936,0,55.561  c0-10.373,8.409-18.782,18.782-18.782C29.156,36.779,37.567,45.188,37.567,55.561z"/><path fill="#000000" d="M94.295,78.299c0,9.71-7.87,17.586-17.583,17.586c-9.708,0-17.579-7.876-17.579-17.586  c0-9.708,7.871-17.579,17.579-17.579C86.425,60.72,94.295,68.591,94.295,78.299z"/><path fill="#000000" d="M100,39.324c0-7.28-5.9-13.181-13.182-13.181c-1.654,0-3.223,0.336-4.68,0.897  c-6.115-7.645-15.166-12.843-25.432-13.857c-2.289-5.33-7.574-9.068-13.745-9.068c-8.266,0-14.969,6.703-14.969,14.969  c0,1.106,0.131,2.181,0.359,3.219c-2.786,2.468-5.241,5.37-7.245,8.676c-0.686,1.131-0.325,2.603,0.805,3.287  c1.13,0.686,2.602,0.325,3.287-0.805c5.951-9.814,16.348-15.675,27.812-15.675c17.924,0,32.504,14.581,32.504,32.503  c0,2.212-0.223,4.415-0.66,6.554c-0.265,1.298,0.569,2.562,1.865,2.825c0.161,0.033,0.322,0.049,0.481,0.049  c1.112,0,2.11-0.779,2.342-1.912c0.388-1.89,0.623-3.822,0.713-5.765C95.869,50.525,100,45.412,100,39.324z"/><text x="0" y="115" fill="#000000" font-size="5px" font-weight="bold" font-family="'Helvetica Neue', Helvetica, Arial-Unicode, Arial, Sans-serif">Created by David Chapman</text><text x="0" y="120" fill="#000000" font-size="5px" font-weight="bold" font-family="'Helvetica Neue', Helvetica, Arial-Unicode, Arial, Sans-serif">from the Noun Project</text></svg>