<svg xmlns="http://www.w3.org/2000/svg" xmlns:xlink="http://www.w3.org/1999/xlink" version="1.1" x="0px" y="0px" viewBox="0 0 100 125" enable-background="new 0 0 100 100" xml:space="preserve"><g><g><g><circle cx="75.343" cy="72.783" r="1.544"/><path d="M71.657,72.483c-0.206,0.821-1.038,1.32-1.862,1.113c-2.623-0.659-5.281-1.816-7.475-3.583     c-0.658-0.533-0.759-1.499-0.229-2.159c0.533-0.658,1.499-0.759,2.158-0.226c1.741,1.41,4.02,2.426,6.295,2.994     C71.365,70.827,71.863,71.662,71.657,72.483z"/><circle cx="28.174" cy="83.068" r="1.544"/><path d="M25.578,78.898c0.565,0.63,0.508,1.601-0.125,2.163c-0.633,0.564-1.601,0.508-2.163-0.125     c-1.8-2.022-3.349-4.473-4.165-7.167c-0.245-0.811,0.214-1.667,1.025-1.912c0.811-0.245,1.664,0.213,1.909,1.024     C22.707,75.028,24.018,77.148,25.578,78.898z"/></g></g><g><g><g><path d="M56.215,53.801l-2.645-0.422l-0.425,2.648L56.215,53.801z M60.837,48.107l-0.419,2.645l3.076-2.234L60.837,48.107z       M51.465,56.855c-0.836-0.132-1.402-0.915-1.27-1.751l0.352-2.207l-2.207-0.352c-0.836-0.132-1.405-0.915-1.27-1.751      c0.132-0.836,0.918-1.405,1.751-1.27l2.207,0.349l0.514-3.245l-2.207-0.352c-0.833-0.132-1.402-0.918-1.27-1.751      c0.135-0.836,0.918-1.405,1.751-1.273l2.207,0.352l0.352-2.207c0.135-0.836,0.918-1.405,1.751-1.27      c0.836,0.132,1.405,0.915,1.273,1.751l-0.352,2.207l3.248,0.517l0.352-2.21c0.132-0.833,0.915-1.402,1.751-1.27      c0.836,0.135,1.405,0.918,1.27,1.754l-0.352,2.207l2.21,0.352c0.833,0.132,1.402,0.915,1.27,1.751      c-0.031,0.187-0.095,0.364-0.184,0.52v0.003l12.715-9.225l0.04-0.031c0.159-0.125,0.279-0.272,0.361-0.441      c0.092-0.184,0.138-0.386,0.138-0.588c0-0.269-0.077-0.526-0.248-0.765l-0.223-0.309c-1.283-1.766-2.945-3.104-4.848-4.01      c-1.904-0.906-4.053-1.374-6.281-1.374c-2.213,0-4.503,0.465-6.697,1.417c-0.021,0.009-0.043,0.018-0.064,0.028      c-1.16,0.508-2.29,1.151-3.37,1.934l-2.109,1.53c-0.686,0.496-1.641,0.343-2.14-0.34c-0.496-0.686-0.343-1.641,0.34-2.14      l1.518-1.102c-0.254-0.098-0.508-0.208-0.753-0.331c-1.185-0.588-2.253-1.469-3.079-2.611l-1.408-1.944l-0.747,0.542      l-0.064,0.046l-0.732,0.533l1.39,1.916c0.009,0.006,0.015,0.015,0.021,0.024v0.003c1.09,1.503,1.619,3.254,1.619,4.98      c0,1.781-0.557,3.538-1.635,5.011v0.003c-0.04,0.055-0.086,0.107-0.132,0.156c-0.683,0.774-1.283,1.592-1.8,2.443      c-0.018,0.034-0.04,0.064-0.058,0.098c-1.509,2.516-2.293,5.301-2.29,7.998c0.003,2.195,0.511,4.325,1.558,6.25      c0.009,0.012,0.015,0.024,0.021,0.037c0.003,0,0.003,0.003,0.003,0.003c0.021,0.04,0.046,0.08,0.07,0.119      c0.23,0.41,0.484,0.808,0.765,1.197l0.227,0.309c0.132,0.181,0.291,0.312,0.471,0.401c0.181,0.092,0.383,0.138,0.588,0.138      c0.251,0,0.496-0.067,0.722-0.22l3.523-2.556C51.847,56.88,51.657,56.886,51.465,56.855z M31.309,16.262      c-3.725,0.866-7.423,1.42-10.661,1.598c-0.845,0.046-1.567-0.603-1.61-1.448c-0.046-0.842,0.6-1.564,1.445-1.61      c3.419-0.184,7.517-0.839,11.564-1.867c0.438-0.11,0.875-0.227,1.313-0.346c0.003,0,0.003,0,0.003,0      c0.003,0,0.006-0.003,0.009-0.003c0.006-0.003,0.009-0.006,0.015-0.006h0.003c0.003,0,0.006-0.003,0.009-0.003      c0.122-0.031,0.251-0.067,0.376-0.104c0.006,0,0.009-0.003,0.015-0.003c0.003-0.003,0.006-0.003,0.009-0.003      c3.437-0.967,6.765-2.192,9.535-3.584c2.158-1.084,3.973-2.274,5.222-3.462c0.615-0.582,1.582-0.557,2.164,0.055      c0.582,0.615,0.557,1.582-0.055,2.164c-1.573,1.491-3.618,2.801-5.956,3.976c-1.145,0.575-2.36,1.117-3.624,1.622      c0.383,1.873,1.154,3.817,2.207,5.754c1.041,1.919,2.354,3.826,3.808,5.653l0.842-0.612c0.328-0.236,0.741-0.337,1.139-0.272      c0.398,0.064,0.762,0.288,0.998,0.612l2.311,3.183c0.003,0.006,0.006,0.009,0.009,0.015c0.003,0.003,0.003,0.003,0.006,0.006      c0.53,0.725,1.2,1.273,1.95,1.65c0.756,0.376,1.592,0.572,2.433,0.572c0.533,0,1.074-0.08,1.595-0.242      c0.003,0,0.009-0.003,0.012-0.006c2.559-1.102,5.246-1.647,7.869-1.647c2.657,0,5.252,0.56,7.594,1.671      c2.339,1.111,4.42,2.782,6.012,4.977l0.227,0.309c0.557,0.771,0.833,1.674,0.829,2.562c0,0.673-0.153,1.344-0.459,1.953      c-0.07,0.141-0.15,0.279-0.236,0.413l5.95,8.203c2.77,3.817,4.184,8.405,4.184,13.146c0,2.804-0.493,5.66-1.488,8.454      l-1.821,5.121c-0.021,0.049-0.058,0.196-0.086,0.395c-0.031,0.199-0.058,0.447-0.083,0.722      c-0.052,0.554-0.095,1.203-0.236,1.876c-0.098,0.447-0.233,0.918-0.53,1.405c-0.171,0.272-0.404,0.554-0.719,0.781      c-0.315,0.23-0.655,0.364-0.97,0.441c-0.315,0.08-0.615,0.101-0.894,0.101c-0.615-0.003-1.169-0.107-1.687-0.217      c-0.511-0.11-0.986-0.23-1.353-0.297c-0.242-0.046-0.435-0.067-0.514-0.064h-0.015h-0.003l-5.433,0.144      c-0.236,0.006-0.468,0.009-0.704,0.009c-3.848,0-7.524-0.842-10.777-2.424c-3.251-1.579-6.076-3.903-8.215-6.853l-3.694-5.09      v3.991c0,3.753-0.979,7.398-2.785,10.661c-0.903,1.635-2.008,3.171-3.3,4.582c-1.295,1.411-2.77,2.697-4.417,3.823l-4.484,3.073      c-0.043,0.031-0.159,0.125-0.3,0.269s-0.309,0.331-0.49,0.539c-0.367,0.419-0.784,0.918-1.292,1.38      c-0.343,0.306-0.728,0.609-1.252,0.826C32.524,94.911,32.169,95,31.783,95c-0.514,0-0.955-0.15-1.31-0.334      c-0.361-0.187-0.652-0.41-0.912-0.637c-0.52-0.459-0.94-0.961-1.316-1.387c-0.245-0.285-0.468-0.533-0.637-0.692      c-0.095-0.092-0.174-0.153-0.205-0.178l-4.481-3.073c-3.29-2.256-5.917-5.139-7.72-8.405c-1.803-3.263-2.785-6.908-2.782-10.661      V59.503c-0.582-0.227-1.105-0.572-1.533-1.007c-0.771-0.784-1.255-1.876-1.252-3.064V55.05      c-0.003-2.029,0.392-3.985,1.111-5.794c0.719-1.809,1.766-3.468,3.064-4.928c2.577-2.896,6.158-5.008,10.254-5.929      c0.006-0.003,0.012-0.003,0.018-0.006c1.059-0.358,1.971-1.038,2.626-1.919c0.667-0.903,1.059-2.011,1.059-3.226v-3.93      c0-0.404,0.165-0.799,0.45-1.084c0.285-0.285,0.68-0.447,1.08-0.447h0.964c0.028-1.843,0.101-3.593,0.217-5.197      c0.147-2.042,0.361-3.851,0.627-5.332C31.171,16.908,31.238,16.574,31.309,16.262z M85.994,68.569      c0.878-2.473,1.31-4.986,1.31-7.429c-0.003-4.135-1.227-8.075-3.603-11.35l-5.776-7.961L51.538,60.975l5.776,7.961      c1.837,2.528,4.261,4.527,7.08,5.898s6.033,2.115,9.437,2.115c0.208,0,0.416-0.003,0.624-0.009l5.433-0.144      c0.034,0,0.064,0,0.098,0c0.294,0,0.56,0.031,0.82,0.07c0.26,0.043,0.511,0.095,0.756,0.15c0.487,0.107,0.958,0.223,1.347,0.291      c0.26,0.046,0.484,0.07,0.631,0.067c0.012,0,0.024,0,0.037,0c0.021-0.061,0.049-0.147,0.07-0.248      c0.086-0.361,0.135-0.909,0.187-1.491c0.034-0.389,0.073-0.793,0.147-1.209c0.043-0.239,0.101-0.481,0.19-0.738L85.994,68.569z       M57.296,50.871l0.517-3.248l-3.248-0.514l-0.514,3.245L57.296,50.871z M48.082,69.635v-6.967      c-0.101,0.006-0.202,0.009-0.303,0.009c-0.676,0-1.344-0.156-1.953-0.459c-0.609-0.303-1.16-0.756-1.582-1.341l-0.227-0.312      c-0.184-0.251-0.358-0.508-0.523-0.768H26.283h-0.389H15.481v9.838c0,3.22,0.836,6.348,2.4,9.183      c1.564,2.831,3.857,5.363,6.771,7.361l4.481,3.073c0.297,0.205,0.533,0.425,0.753,0.646c0.22,0.223,0.422,0.453,0.618,0.676      c0.386,0.444,0.756,0.869,1.044,1.126c0.092,0.083,0.171,0.144,0.233,0.187c0.055-0.037,0.125-0.092,0.202-0.159      c0.279-0.242,0.646-0.658,1.025-1.099c0.257-0.294,0.526-0.6,0.829-0.891c0.178-0.168,0.364-0.334,0.591-0.487l4.484-3.073      c2.911-1.999,5.203-4.53,6.768-7.361C47.244,75.983,48.079,72.855,48.082,69.635z M45.949,38.576      c0.643-0.918,0.979-2.017,0.979-3.122c0-1.099-0.328-2.198-1.019-3.162c-0.003,0-0.003-0.003-0.003-0.003      c-0.006-0.006-0.009-0.015-0.015-0.021l-2.308-3.18c-0.496-0.683-0.343-1.641,0.34-2.136l0.701-0.508      c-1.509-1.904-2.893-3.912-4.022-5.99c-1.08-1.993-1.931-4.05-2.415-6.143c-0.398,0.135-0.799,0.269-1.203,0.398      c-0.732,0.233-1.472,0.456-2.219,0.664c0,0,0,0,0,0.003c-0.003,0.006-0.021,0.046-0.031,0.067      c-0.055,0.125-0.116,0.297-0.181,0.499c-0.086,0.272-0.171,0.603-0.257,0.983c-0.113,0.508-0.223,1.102-0.324,1.769      c-0.355,2.335-0.597,5.528-0.649,9.094h0.94c0.404,0,0.799,0.162,1.084,0.447c0.285,0.285,0.447,0.68,0.447,1.084v3.93      c0,1.215,0.395,2.323,1.062,3.226c0.661,0.894,1.589,1.576,2.663,1.931c0.003,0,0.003,0,0.006,0      c1.803,0.407,3.508,1.047,5.066,1.885c0.401-0.569,0.839-1.123,1.313-1.656c0.009-0.009,0.015-0.021,0.024-0.031      C45.934,38.594,45.94,38.585,45.949,38.576z M41.982,56.736c-0.652-1.794-0.97-3.679-0.967-5.574      c0.003-2.807,0.689-5.635,1.999-8.249c-1.307-0.683-2.736-1.209-4.258-1.546c-0.006,0-0.015-0.003-0.024-0.006      c-1.243-0.275-2.55-0.419-3.893-0.419h-2.605c-0.848,0-1.53-0.686-1.53-1.53c0-0.845,0.683-1.53,1.53-1.53h1.876      c-0.872-1.331-1.377-2.929-1.377-4.634v-2.4H31.78h-0.952v2.4c0,0.006,0,0.009,0,0.015c0,1.879-0.621,3.627-1.659,5.032      c-1.044,1.408-2.513,2.482-4.224,3.036c-0.046,0.015-0.092,0.028-0.138,0.034c-0.034,0.009-0.064,0.015-0.095,0.021      c-2.605,0.591-4.943,1.742-6.844,3.287c-1.928,1.561-3.407,3.523-4.279,5.715c-0.582,1.463-0.894,3.024-0.894,4.662v0.383      c0,0.364,0.138,0.676,0.373,0.915c0.236,0.236,0.548,0.383,0.906,0.389h4.567c-0.162-0.07-0.315-0.174-0.45-0.309      c-0.597-0.597-0.597-1.567,0-2.164l1.491-1.491l-1.491-1.488c-0.597-0.6-0.597-1.567,0-2.167c0.597-0.597,1.567-0.597,2.164,0      l1.491,1.491l2.176-2.173l-1.491-1.491c-0.6-0.597-0.6-1.567,0-2.164c0.597-0.6,1.564-0.6,2.164,0l1.491,1.491l1.491-1.491      c0.597-0.6,1.564-0.6,2.164,0c0.597,0.597,0.597,1.567,0,2.164l-1.491,1.491l2.173,2.173l1.491-1.491      c0.597-0.597,1.567-0.597,2.164,0c0.597,0.597,0.597,1.567,0,2.164l-1.491,1.491l1.491,1.491c0.597,0.597,0.597,1.567,0,2.164      c-0.135,0.135-0.288,0.239-0.45,0.309H41.982z M32.218,56.736l-1.794-1.8l-1.8,1.8H32.218z M26.087,54.945l2.173-2.173      l-2.173-2.173l-2.173,2.173L26.087,54.945z M19.941,56.736h3.606l-1.8-1.8L19.941,56.736z"/></g></g></g></g><text x="0" y="115" fill="#000000" font-size="5px" font-weight="bold" font-family="'Helvetica Neue', Helvetica, Arial-Unicode, Arial, Sans-serif">Created by Pumpkin Juice</text><text x="0" y="120" fill="#000000" font-size="5px" font-weight="bold" font-family="'Helvetica Neue', Helvetica, Arial-Unicode, Arial, Sans-serif">from the Noun Project</text></svg>