<svg xmlns="http://www.w3.org/2000/svg" xmlns:xlink="http://www.w3.org/1999/xlink" version="1.1" x="0px" y="0px" viewBox="-25 -25 100 125" enable-background="new -25 -25 100 100" xml:space="preserve"><path d="M11.4,35.2c-0.2,0-0.3,0-0.5-0.1c-0.1,0-1.7-0.7-3-1.8c-1.6-1.4-2.8-3.2-3.3-5.3c-0.5-2-0.4-4.2,0.2-6.2  c0.5-1.7,1.5-3.1,1.5-3.2c0.3-0.5,1-0.7,1.5-0.4c0.1,0,1.7,0.7,3,1.8c1.6,1.4,2.8,3.2,3.3,5.3c0.5,2,0.4,4.2-0.2,6.2  c-0.5,1.7-1.5,3.1-1.5,3.2C12.2,35,11.8,35.2,11.4,35.2z M7.8,21c-0.2,0.4-0.5,1-0.6,1.6c-0.5,1.6-0.5,3.4-0.2,4.9  c0.4,1.5,1.2,2.9,2.5,4c0.5,0.4,1,0.7,1.4,0.9c0.2-0.4,0.5-1,0.6-1.6c0.5-1.6,0.5-3.4,0.2-4.9c-0.4-1.5-1.2-2.9-2.5-4  C8.8,21.5,8.3,21.2,7.8,21z"/><path d="M18.1,22.9c-0.2,0-0.4-0.1-0.6-0.2c-0.1,0-1.6-0.9-2.6-2.4c-1.1-1.5-2.1-3.2-2.3-5.4c-0.2-1.9,0.3-3.9,1.3-5.7  c0.9-1.5,2.2-2.7,2.2-2.8c0.4-0.4,1-0.4,1.4-0.1c0.1,0,1.6,0.9,2.6,2.4c1,1.5,2.1,3.2,2.3,5.4c0.2,2.1-0.3,4.2-1.3,5.8  c-0.8,1.3-2.1,2.6-2.1,2.6C18.8,22.8,18.4,22.9,18.1,22.9z M17.1,9c-0.3,0.4-0.7,0.9-1,1.4c-0.8,1.4-1.1,2.9-1,4.3  c0.1,1.6,1,2.9,1.8,4.2c0.3,0.4,0.7,0.8,1,1.1c0.4-0.4,0.8-1,1.1-1.5c0.7-1.2,1.1-2.7,1-4.3c-0.1-1.6-1-2.9-1.8-4.2  C17.8,9.6,17.5,9.3,17.1,9z"/><path d="M26.1,11.7c-0.4,0-0.7-0.2-1-0.5c0-0.1-1-1.3-1.5-2.8C23.1,6.7,23,5,23.4,3.5c0.5-1.6,1.4-2.9,3.1-4.1  c1.2-0.9,2.6-1.4,2.7-1.5c0.5-0.2,1.1,0,1.4,0.4c0,0.1,1,1.3,1.5,2.8c0.6,1.8,0.7,3.5,0.2,5.1c-0.5,1.6-1.4,2.9-3.1,4.1  c-1.2,0.9-2.6,1.4-2.7,1.5C26.4,11.7,26.3,11.7,26.1,11.7z M29.2,0.6c-0.4,0.2-0.8,0.4-1.2,0.7c-1.2,0.9-1.8,1.7-2.1,2.8  c-0.3,1.1-0.2,2.3,0.2,3.6c0.2,0.5,0.4,0.9,0.6,1.2c0.4-0.2,0.8-0.4,1.2-0.7c1.2-0.9,1.8-1.7,2.1-2.8c0.3-1.1,0.2-2.3-0.2-3.6  C29.6,1.3,29.4,0.9,29.2,0.6z"/><path d="M26.7,42.4L26.7,42.4c-1.1,0-2.2-0.2-3.2-0.5c-1.8-0.6-3.2-1.6-3.3-1.6c-0.5-0.4-0.6-1-0.4-1.5c0-0.1,0.7-1.5,2.1-2.9  c1.4-1.5,3.3-2.7,5.3-3.3c2-0.6,4.2-0.6,6.2,0c1.8,0.6,3.2,1.6,3.3,1.6c0.5,0.4,0.6,1,0.4,1.5c0,0.1-0.7,1.5-2.1,2.9  c-1.4,1.5-3.3,2.7-5.2,3.3C28.7,42.3,27.7,42.4,26.7,42.4z M22.6,38.9c0.4,0.2,1,0.5,1.6,0.7c0.8,0.2,1.6,0.4,2.5,0.4l0,0  c0.8,0,1.6-0.1,2.3-0.3c1.5-0.4,3.1-1.4,4.2-2.6c0.4-0.5,0.8-0.9,1.1-1.3c-0.4-0.2-1-0.5-1.6-0.7c-1.5-0.5-3.3-0.5-4.8,0  c-1.5,0.4-3.1,1.4-4.2,2.6C23.2,38.1,22.9,38.5,22.6,38.9z"/><path d="M33.2,30.6L33.2,30.6c-0.8,0-1.6-0.1-2.3-0.3c-1.9-0.5-3-1.2-3.1-1.2c-0.5-0.3-0.7-0.9-0.5-1.4c0.1-0.2,0.6-1.9,1.5-3  c0.9-1.3,2.5-3,4.6-3.6c2.1-0.7,4-0.8,5.8-0.3c1.6,0.4,3,1.1,3.1,1.2c0.5,0.3,0.7,0.9,0.6,1.4c0,0.1-0.5,1.6-1.5,3  c-0.6,0.8-2.2,2.9-4.6,3.7C35.5,30.4,34.3,30.6,33.2,30.6z M30,27.4c0.4,0.2,0.9,0.3,1.5,0.5c0.6,0.1,1.1,0.2,1.7,0.2l0,0  c0.9,0,1.8-0.2,2.8-0.5c1.2-0.4,2.4-1.4,3.3-2.7c0.3-0.5,0.6-0.9,0.8-1.4c-0.4-0.2-0.9-0.4-1.5-0.5c-1.4-0.4-2.8-0.3-4.5,0.3  c-1.5,0.5-2.8,1.9-3.4,2.7C30.4,26.5,30.2,27,30,27.4z"/><path d="M37.4,17.6c-1.4,0-2.7-0.4-2.7-0.4c-0.5-0.2-0.9-0.7-0.9-1.2c0-0.1,0.1-1.4,0.4-2.8c0.4-1.8,1.4-3.4,2.7-4.5  c1.3-1,3.1-1.7,4.9-1.7l0.3,0c1.4,0,2.7,0.4,2.7,0.4c0.5,0.2,0.9,0.7,0.9,1.2c0,0.1-0.1,1.4-0.4,2.8c-0.4,1.8-1.4,3.4-2.7,4.5  c-1.3,1-3.1,1.7-4.9,1.7L37.4,17.6z M36.3,15c0.3,0,0.7,0.1,1.1,0.1l0.2,0c1.3-0.1,2.6-0.5,3.5-1.2c0.9-0.7,1.6-1.8,1.8-3  c0.1-0.5,0.2-1,0.2-1.4c-0.3,0-0.7-0.1-1.1-0.1c-1.5,0.1-2.8,0.5-3.7,1.2c-0.9,0.7-1.6,1.8-1.8,3C36.4,14.1,36.3,14.6,36.3,15z"/><path d="M7.5,57.7c-0.1,0-0.2,0-0.4-0.1c-0.6-0.2-1-0.9-0.8-1.5C9.9,44.7,22,23.3,29.6,13.2c0.4-0.5,1.2-0.6,1.7-0.2  c0.5,0.4,0.6,1.2,0.2,1.7C24.1,24.6,12,45.9,8.6,56.8C8.5,57.3,8,57.7,7.5,57.7z"/><path d="M36.9,4.2c-0.5,0-1-0.3-1.2-0.9c0,0-0.5-1.6-0.7-2.8c-0.3-1.6-0.1-3.3,0.6-4.6c0.8-1.7,2.5-2.6,3.8-3.1  c1.3-0.5,2.8-0.5,2.9-0.5c0.4,0,0.9,0.2,1.1,0.6c0,0.1,0.8,1.3,1.1,2.9c0.3,1.7,0.1,3.3-0.6,4.6C43,2.1,41.3,3,40,3.5  c-1.2,0.4-2.8,0.7-2.9,0.7C37,4.2,37,4.2,36.9,4.2z M41.6-5.2c-0.4,0.1-0.9,0.1-1.3,0.3C39-4.4,38.1-3.7,37.8-3  c-0.4,0.8-0.5,2-0.3,3.1c0.1,0.5,0.2,1,0.3,1.5c0.4-0.1,1-0.2,1.4-0.4c1.2-0.4,2.1-1.1,2.5-1.9C42-1.5,42.2-2.6,42-3.8  C41.9-4.3,41.7-4.8,41.6-5.2z"/><text x="-25" y="90" fill="#000000" font-size="5px" font-weight="bold" font-family="'Helvetica Neue', Helvetica, Arial-Unicode, Arial, Sans-serif">Created by Ray Design</text><text x="-25" y="95" fill="#000000" font-size="5px" font-weight="bold" font-family="'Helvetica Neue', Helvetica, Arial-Unicode, Arial, Sans-serif">from the Noun Project</text></svg>